<mxfile host="Electron" agent="Mozilla/5.0 (Windows NT 10.0; Win64; x64) AppleWebKit/537.36 (KHTML, like Gecko) draw.io/25.0.2 Chrome/128.0.6613.186 Electron/32.2.5 Safari/537.36" version="25.0.2">
  <diagram name="PÃ¡gina-1" id="PVfdIYDzPCwgvY4Q6XuG">
    <mxGraphModel dx="596" dy="350" grid="1" gridSize="10" guides="1" tooltips="1" connect="1" arrows="1" fold="1" page="1" pageScale="1" pageWidth="827" pageHeight="1169" math="0" shadow="0">
      <root>
        <mxCell id="0" />
        <mxCell id="1" parent="0" />
        <mxCell id="SlxmjYS9UCdOZyBtt-4u-3" value="" style="endArrow=none;html=1;rounded=0;strokeWidth=1;dashed=1;dashPattern=1 2;" parent="1" edge="1">
          <mxGeometry width="50" height="50" relative="1" as="geometry">
            <mxPoint x="240" y="400" as="sourcePoint" />
            <mxPoint x="240" y="110" as="targetPoint" />
          </mxGeometry>
        </mxCell>
        <mxCell id="SlxmjYS9UCdOZyBtt-4u-12" value="5 frames" style="text;html=1;align=center;verticalAlign=middle;whiteSpace=wrap;rounded=0;" parent="1" vertex="1">
          <mxGeometry x="310" y="150" width="60" height="30" as="geometry" />
        </mxCell>
        <mxCell id="SlxmjYS9UCdOZyBtt-4u-23" value="" style="endArrow=none;html=1;rounded=0;" parent="1" edge="1">
          <mxGeometry width="50" height="50" relative="1" as="geometry">
            <mxPoint x="10" y="400" as="sourcePoint" />
            <mxPoint x="10" y="10" as="targetPoint" />
          </mxGeometry>
        </mxCell>
        <mxCell id="SlxmjYS9UCdOZyBtt-4u-24" value="" style="endArrow=none;html=1;rounded=0;" parent="1" edge="1">
          <mxGeometry width="50" height="50" relative="1" as="geometry">
            <mxPoint x="10" y="10" as="sourcePoint" />
            <mxPoint x="650" y="10" as="targetPoint" />
          </mxGeometry>
        </mxCell>
        <mxCell id="SlxmjYS9UCdOZyBtt-4u-26" value="" style="shape=flexArrow;endArrow=classic;html=1;rounded=0;" parent="1" edge="1">
          <mxGeometry width="50" height="50" relative="1" as="geometry">
            <mxPoint x="240" y="70" as="sourcePoint" />
            <mxPoint x="240" y="100" as="targetPoint" />
          </mxGeometry>
        </mxCell>
        <mxCell id="SlxmjYS9UCdOZyBtt-4u-30" value="Dash Stop" style="text;html=1;align=center;verticalAlign=middle;whiteSpace=wrap;rounded=0;" parent="1" vertex="1">
          <mxGeometry x="210" y="40" width="60" height="30" as="geometry" />
        </mxCell>
        <mxCell id="SlxmjYS9UCdOZyBtt-4u-40" value="downY" style="rounded=0;whiteSpace=wrap;html=1;" parent="1" vertex="1">
          <mxGeometry x="80" y="260" width="390" height="20" as="geometry" />
        </mxCell>
        <mxCell id="SlxmjYS9UCdOZyBtt-4u-44" value="TAP" style="rounded=0;whiteSpace=wrap;html=1;" parent="1" vertex="1">
          <mxGeometry x="80" y="280" width="160" height="40" as="geometry" />
        </mxCell>
        <mxCell id="SlxmjYS9UCdOZyBtt-4u-45" value="" style="shape=flexArrow;endArrow=classic;html=1;rounded=0;" parent="1" edge="1">
          <mxGeometry width="50" height="50" relative="1" as="geometry">
            <mxPoint x="440" y="70" as="sourcePoint" />
            <mxPoint x="440" y="100" as="targetPoint" />
          </mxGeometry>
        </mxCell>
        <mxCell id="SlxmjYS9UCdOZyBtt-4u-46" value="f 5" style="text;html=1;align=center;verticalAlign=middle;whiteSpace=wrap;rounded=0;" parent="1" vertex="1">
          <mxGeometry x="410" y="40" width="60" height="30" as="geometry" />
        </mxCell>
        <mxCell id="M4xJ9-b0rOuenIxvUEOM-3" value="" style="shape=curlyBracket;whiteSpace=wrap;html=1;rounded=1;labelPosition=left;verticalLabelPosition=middle;align=right;verticalAlign=middle;rotation=-90;size=0.5;" parent="1" vertex="1">
          <mxGeometry x="150" y="260" width="20" height="160" as="geometry" />
        </mxCell>
        <mxCell id="M4xJ9-b0rOuenIxvUEOM-4" value="4 frames" style="text;html=1;align=center;verticalAlign=middle;whiteSpace=wrap;rounded=0;" parent="1" vertex="1">
          <mxGeometry x="130" y="340" width="60" height="30" as="geometry" />
        </mxCell>
        <mxCell id="ncgJKDvWFcTqWgXhuiZL-1" value="FORCE_FTILT" style="rounded=0;whiteSpace=wrap;html=1;" vertex="1" parent="1">
          <mxGeometry x="240" y="200" width="200" height="40" as="geometry" />
        </mxCell>
        <mxCell id="ncgJKDvWFcTqWgXhuiZL-2" value="" style="shape=flexArrow;endArrow=classic;html=1;rounded=0;" edge="1" parent="1">
          <mxGeometry width="50" height="50" relative="1" as="geometry">
            <mxPoint x="560" y="70" as="sourcePoint" />
            <mxPoint x="560" y="100" as="targetPoint" />
          </mxGeometry>
        </mxCell>
        <mxCell id="ncgJKDvWFcTqWgXhuiZL-3" value="f 8" style="text;html=1;align=center;verticalAlign=middle;whiteSpace=wrap;rounded=0;" vertex="1" parent="1">
          <mxGeometry x="530" y="40" width="60" height="30" as="geometry" />
        </mxCell>
        <mxCell id="ncgJKDvWFcTqWgXhuiZL-4" value="" style="shape=curlyBracket;whiteSpace=wrap;html=1;rounded=1;labelPosition=left;verticalLabelPosition=middle;align=right;verticalAlign=middle;rotation=90;" vertex="1" parent="1">
          <mxGeometry x="390" y="-20" width="20" height="320" as="geometry" />
        </mxCell>
        <mxCell id="ncgJKDvWFcTqWgXhuiZL-5" value="8 frames" style="text;html=1;align=center;verticalAlign=middle;whiteSpace=wrap;rounded=0;" vertex="1" parent="1">
          <mxGeometry x="370" y="110" width="60" height="30" as="geometry" />
        </mxCell>
        <mxCell id="ncgJKDvWFcTqWgXhuiZL-6" value="EXTEND" style="rounded=0;whiteSpace=wrap;html=1;" vertex="1" parent="1">
          <mxGeometry x="470" y="200" width="90" height="40" as="geometry" />
        </mxCell>
        <mxCell id="ncgJKDvWFcTqWgXhuiZL-7" value="downY" style="rounded=0;whiteSpace=wrap;html=1;" vertex="1" parent="1">
          <mxGeometry x="500" y="260" width="260" height="20" as="geometry" />
        </mxCell>
        <mxCell id="ncgJKDvWFcTqWgXhuiZL-8" value="TAP" style="rounded=0;whiteSpace=wrap;html=1;" vertex="1" parent="1">
          <mxGeometry x="500" y="280" width="160" height="40" as="geometry" />
        </mxCell>
        <mxCell id="ncgJKDvWFcTqWgXhuiZL-9" value="" style="shape=curlyBracket;whiteSpace=wrap;html=1;rounded=1;labelPosition=left;verticalLabelPosition=middle;align=right;verticalAlign=middle;rotation=-90;size=0.5;" vertex="1" parent="1">
          <mxGeometry x="570" y="260" width="20" height="160" as="geometry" />
        </mxCell>
        <mxCell id="ncgJKDvWFcTqWgXhuiZL-10" value="4 frames" style="text;html=1;align=center;verticalAlign=middle;whiteSpace=wrap;rounded=0;" vertex="1" parent="1">
          <mxGeometry x="550" y="340" width="60" height="30" as="geometry" />
        </mxCell>
        <mxCell id="ncgJKDvWFcTqWgXhuiZL-11" value="" style="shape=curlyBracket;whiteSpace=wrap;html=1;rounded=1;labelPosition=left;verticalLabelPosition=middle;align=right;verticalAlign=middle;rotation=90;" vertex="1" parent="1">
          <mxGeometry x="330" y="80" width="20" height="200" as="geometry" />
        </mxCell>
      </root>
    </mxGraphModel>
  </diagram>
</mxfile>
